<svg width="48" height="48" viewBox="15 13 24 24" xmlns="http://www.w3.org/2000/svg">
<path fill-rule="evenodd" clip-rule="evenodd" d="M17 19.6339V19H31V19.6339C30.9815 19.6446 30.9633 19.656 30.9453 19.6679L24 24.2981L17.0547 19.6679C17.0367 19.656 17.0185 19.6446 17 19.6339ZM17 22.0352V29H31V22.0352L24.5547 26.3321C24.2188 26.556 23.7812 26.556 23.4453 26.3321L17 22.0352ZM15 18C15 17.4477 15.4477 17 16 17H32C32.5523 17 33 17.4477 33 18V30C33 30.5523 32.5523 31 32 31H16C15.4477 31 15 30.5523 15 30V18Z"/>
</svg>
