<svg width="48" height="48" viewBox="4 8 32 32" xmlns="http://www.w3.org/2000/svg">
<g filter="url(#filter0_d_1_369)">
<path fill-rule="evenodd" clip-rule="evenodd" d="M28 21C28 23.2091 26.2091 25 24 25C21.7909 25 20 23.2091 20 21C20 18.7909 21.7909 17 24 17C26.2091 17 28 18.7909 28 21ZM25.4345 26.8274C28.0555 26.1844 30 23.8193 30 21C30 17.6863 27.3137 15 24 15C20.6863 15 18 17.6863 18 21C18 23.8193 19.9445 26.1844 22.5655 26.8274L23.0035 32.083C23.0466 32.6013 23.4799 33 24 33C24.5201 33 24.9534 32.6013 24.9965 32.083L25.4345 26.8274Z"/>
</g>
<defs>
<filter id="filter0_d_1_369" x="-4" y="0" width="56" height="56" filterUnits="userSpaceOnUse" color-interpolation-filters="sRGB">
<feFlood flood-opacity="0" result="BackgroundImageFix"/>
<feColorMatrix in="SourceAlpha" type="matrix" values="0 0 0 0 0 0 0 0 0 0 0 0 0 0 0 0 0 0 127 0" result="hardAlpha"/>
<feOffset dy="4"/>
<feGaussianBlur stdDeviation="2"/>
<feComposite in2="hardAlpha" operator="out"/>
<feColorMatrix type="matrix" values="0 0 0 0 0 0 0 0 0 0 0 0 0 0 0 0 0 0 0.25 0"/>
<feBlend mode="normal" in2="BackgroundImageFix" result="effect1_dropShadow_1_369"/>
<feBlend mode="normal" in="SourceGraphic" in2="effect1_dropShadow_1_369" result="shape"/>
</filter>
</defs>
</svg>
