<svg width="32" height="32" viewBox="4 8 32 32" xmlns="http://www.w3.org/2000/svg">
<g filter="url(#filter0_d_52_826)">
<path fill-rule="evenodd" clip-rule="evenodd" d="M23.9913 15C22.4525 15 21.1711 15.9888 20.2548 16.9476C19.3085 17.9379 18.5515 19.1103 18.0825 19.8461C17.4233 20.8804 16.3295 22.8216 15.6406 24.812C15.2968 25.8054 15.0354 26.8625 15.0033 27.8528C14.9714 28.8378 15.1645 29.8792 15.8709 30.6861C16.6411 31.5659 17.879 32.1258 19.1871 32.4733C20.5262 32.829 22.083 33 23.6459 33C25.2107 33 26.8165 32.8286 28.2568 32.4786C29.6812 32.1324 31.023 31.5924 31.9915 30.8022C32.881 30.0764 33.0441 28.9366 32.9908 27.9662C32.9355 26.9588 32.6354 25.838 32.2646 24.7908C31.5204 22.6888 30.3978 20.6269 29.9001 19.8461C29.4344 19.1154 28.6535 17.9494 27.6934 16.9578C26.7756 16.0099 25.4852 15 23.9913 15ZM19.7691 20.921C20.2405 20.1814 20.905 19.1621 21.7007 18.3294C22.5264 17.4653 23.3076 17 23.9913 17C24.6149 17 25.3997 17.464 26.2565 18.349C27.071 19.1902 27.7642 20.216 28.2135 20.921C28.6416 21.5926 29.6925 23.5186 30.3793 25.4583C30.724 26.4319 30.9537 27.3455 30.9938 28.0758C31.0359 28.8431 30.8599 29.1442 30.7271 29.2526C30.1203 29.7477 29.1799 30.1729 28 30.4809V25C28 24.4477 27.5523 24 27 24H21C20.4477 24 20 24.4477 20 25V30.6153C19.8985 30.5914 19.7987 30.5664 19.7006 30.5404C18.5336 30.2304 17.7568 29.8039 17.3757 29.3687C17.1321 29.0904 16.9791 28.6328 17.0023 27.9176C17.0253 27.2076 17.2201 26.3633 17.5306 25.4662C18.1503 23.6757 19.1578 21.8802 19.7691 20.921Z"/>
</g>
<defs>
<filter id="filter0_d_52_826" x="-4" y="0" width="56" height="56" filterUnits="userSpaceOnUse" color-interpolation-filters="sRGB">
<feFlood flood-opacity="0" result="BackgroundImageFix"/>
<feColorMatrix in="SourceAlpha" type="matrix" values="0 0 0 0 0 0 0 0 0 0 0 0 0 0 0 0 0 0 127 0" result="hardAlpha"/>
<feOffset dy="4"/>
<feGaussianBlur stdDeviation="2"/>
<feComposite in2="hardAlpha" operator="out"/>
<feColorMatrix type="matrix" values="0 0 0 0 0 0 0 0 0 0 0 0 0 0 0 0 0 0 0.25 0"/>
<feBlend mode="normal" in2="BackgroundImageFix" result="effect1_dropShadow_52_826"/>
<feBlend mode="normal" in="SourceGraphic" in2="effect1_dropShadow_52_826" result="shape"/>
</filter>
</defs>
</svg>
