<svg width="32" height="32" viewBox="4 8 32 32" xmlns="http://www.w3.org/2000/svg">
<path fill-rule="evenodd" clip-rule="evenodd" d="M24 15C24.5523 15 25 15.4477 25 16V18C25 18.5523 24.5523 19 24 19C23.4477 19 23 18.5523 23 18V16C23 15.4477 23.4477 15 24 15ZM24 26C25.1046 26 26 25.1046 26 24C26 22.8954 25.1046 22 24 22C22.8954 22 22 22.8954 22 24C22 25.1046 22.8954 26 24 26ZM24 28C26.2091 28 28 26.2091 28 24C28 21.7909 26.2091 20 24 20C21.7909 20 20 21.7909 20 24C20 26.2091 21.7909 28 24 28ZM25 30C25 29.4477 24.5523 29 24 29C23.4477 29 23 29.4477 23 30V32C23 32.5523 23.4477 33 24 33C24.5523 33 25 32.5523 25 32V30ZM33 24C33 24.5523 32.5523 25 32 25H30C29.4477 25 29 24.5523 29 24C29 23.4477 29.4477 23 30 23H32C32.5523 23 33 23.4477 33 24ZM18 25C18.5523 25 19 24.5523 19 24C19 23.4477 18.5523 23 18 23H16C15.4477 23 15 23.4477 15 24C15 24.5523 15.4477 25 16 25H18ZM30.364 17.636C30.7545 18.0266 30.7545 18.6597 30.364 19.0503L28.9498 20.4645C28.5592 20.855 27.9261 20.855 27.5355 20.4645C27.145 20.0739 27.145 19.4408 27.5355 19.0503L28.9498 17.636C29.3403 17.2455 29.9734 17.2455 30.364 17.636ZM20.4645 28.9498C20.855 28.5592 20.855 27.9261 20.4645 27.5355C20.0739 27.145 19.4408 27.145 19.0502 27.5355L17.636 28.9498C17.2455 29.3403 17.2455 29.9734 17.636 30.364C18.0266 30.7545 18.6597 30.7545 19.0502 30.364L20.4645 28.9498ZM30.364 30.364C29.9734 30.7545 29.3403 30.7545 28.9498 30.364L27.5355 28.9498C27.145 28.5592 27.145 27.9261 27.5355 27.5355C27.9261 27.145 28.5592 27.145 28.9498 27.5355L30.364 28.9498C30.7545 29.3403 30.7545 29.9734 30.364 30.364ZM19.0502 20.4645C19.4408 20.855 20.0739 20.855 20.4645 20.4645C20.855 20.0739 20.855 19.4408 20.4645 19.0502L19.0502 17.636C18.6597 17.2455 18.0266 17.2455 17.636 17.636C17.2455 18.0266 17.2455 18.6597 17.636 19.0502L19.0502 20.4645Z"/>
</svg>
