<svg width="32" height="32" viewBox="4 8 32 32" xmlns="http://www.w3.org/2000/svg">
<path fill-rule="evenodd" clip-rule="evenodd" d="M21.0676 22.4699C22.0297 21.4276 22.7914 20.1715 23.366 18.6615H18.6756C19.2502 20.1047 20.0386 21.3875 21.0676 22.4699ZM27.1611 18.1047C27.1611 18.4122 26.9119 18.6615 26.6043 18.6615H25.2369C24.5153 20.6392 23.5398 22.2561 22.3104 23.5924C22.8842 24.2605 23.7747 24.8758 24.7815 25.1975C25.1368 25.3111 25.3439 25.7104 25.1825 26.0467C25.0441 26.335 24.9573 26.5201 24.8283 26.7954C24.8132 26.8276 24.7975 26.8611 24.7811 26.8961C24.6506 27.1746 24.3172 27.2953 24.0442 27.1536C23.0015 26.6125 22.4727 26.1506 21.6745 25.4536C21.4644 25.2701 21.2357 25.0703 20.9741 24.8486C19.6312 25.9204 18.0611 26.7424 16.2325 27.3668C15.9655 27.458 15.6731 27.3282 15.5292 27.0855C15.4508 26.9532 15.3629 26.8135 15.272 26.6759C15.0479 26.3366 15.2097 25.8516 15.5978 25.7301C17.2137 25.2243 18.6033 24.5396 19.758 23.6592C18.5554 22.2829 17.6333 20.6125 16.9117 18.6615H15.5576C15.2501 18.6615 15.0008 18.4122 15.0008 18.1047V17.6682C15.0008 17.3606 15.2501 17.1114 15.5576 17.1114H20.2391V15.5568C20.2391 15.2493 20.4884 15 20.7959 15H21.2992C21.6067 15 21.856 15.2493 21.856 15.5568V17.1114H26.6043C26.9119 17.1114 27.1611 17.3606 27.1611 17.6682V18.1047ZM27.1325 31.0425H30.5646L31.096 32.6209C31.1723 32.8474 31.3846 33 31.6237 33H32.5021C32.8908 33 33.1598 32.612 33.0236 32.248L29.8843 23.8613C29.8029 23.6438 29.5951 23.4997 29.3629 23.4997H28.3219C28.0893 23.4997 27.8813 23.6443 27.8001 23.8623L24.6781 32.249C24.5427 32.6128 24.8118 33 25.2 33H26.0787C26.3184 33 26.5311 32.8466 26.6069 32.6193L27.1325 31.0425ZM30.0361 29.457H27.661L28.842 25.9009L30.0361 29.457Z"/>
</svg>
