<svg width="48" height="48" viewBox="14 14 20 20" xmlns="http://www.w3.org/2000/svg">
<path fill-rule="evenodd" clip-rule="evenodd" d="M31 24C31 27.866 27.866 31 24 31C20.134 31 17 27.866 17 24C17 20.134 20.134 17 24 17C27.866 17 31 20.134 31 24ZM33 24C33 28.9706 28.9706 33 24 33C19.0294 33 15 28.9706 15 24C15 19.0294 19.0294 15 24 15C28.9706 15 33 19.0294 33 24ZM20.2929 22.2929C19.9024 22.6834 19.9024 23.3166 20.2929 23.7071C20.6834 24.0976 21.3166 24.0976 21.7071 23.7071L23 22.4142L23 28C23 28.5523 23.4477 29 24 29C24.5523 29 25 28.5523 25 28V22.4142L26.2929 23.7071C26.6834 24.0976 27.3166 24.0976 27.7071 23.7071C28.0976 23.3166 28.0976 22.6834 27.7071 22.2929L24.7071 19.2929C24.3166 18.9024 23.6834 18.9024 23.2929 19.2929L20.2929 22.2929Z"/>
</svg>
